# AST/ASF file generated using VICON BodyLanguage
# -----------------------------------------------
:version 1.10
:name VICON
:units
  mass 1.0
  length 0.45
  angle deg
:documentation
   .ast/.asf automatically generated from VICON data using
   VICON BodyBuilder and BodyLanguage model FoxedUp or BRILLIANT.MOD
:root
   order TX TY TZ RX RY RZ
   axis XYZ
   position 0 0 0  
   orientation 0 0 0 
:bonedata
  begin
     id 1 
     name lhipjoint
     direction 0.570549 -0.739093 0.358072 
     length 2.41801 
     axis 0 0 0  XYZ
  end
  begin
     id 2 
     name lfemur
     direction 0.34202 -0.939693 0  
     length 7.44434  
     axis 0 0 20  XYZ
    dof rx ry rz
    limits (-160.0 20.0)
           (-70.0 70.0)
           (-60.0 70.0)
  end
  begin
     id 3 
     name ltibia
     direction 0.34202 -0.939693 0   
     length 7.60047   
     axis 0 0 20   XYZ
    dof rx
    limits (-10.0 170.0)
  end
  begin
     id 4 
     name lfoot
     direction 0.0909041 -0.249757 0.964032   
     length 2.03437   
     axis -90 7.62852e-016 20   XYZ
    dof rx rz
    limits (-45.0 90.0)
           (-70.0 20.0)
  end
  begin
     id 5 
     name ltoes
     direction 1.53547e-011 -4.2174e-011 1   
     length 1.02054   
     axis -90 7.62852e-016 20   XYZ
    dof rx
    limits (-90.0 20.0)
  end
  begin
     id 6 
     name rhipjoint
     direction -0.558096 -0.746754 0.361784   
     length 2.3932  
     axis 0 0 0  XYZ 
  end
  begin
     id 7 
     name rfemur
     direction -0.34202 -0.939693 0   
     length 7.3886   
     axis 0 0 -20   XYZ
    dof rx ry rz
    limits (-160.0 20.0)
           (-70.0 70.0)
           (-70.0 60.0)
  end
  begin
     id 8 
     name rtibia
     direction -0.34202 -0.939693 0   
     length 7.4839   
     axis 0 0 -20   XYZ
    dof rx
    limits (-10.0 170.0)
 end
 begin
     id 9 
     name rfoot
     direction -0.114619 -0.314914 0.942174   
     length 2.25127  
     axis -90 -7.62852e-016 -20   XYZ
    dof rx rz
    limits (-45.0 90.0)
           (-20.0 70.0)
  end
  begin
     id 10 
     name rtoes
     direction -1.53518e-011 -4.21881e-011 1   
     length 1.11821   
     axis -90 -7.62852e-016 -20   XYZ
    dof rx
    limits (-90.0 20.0)
  end
  begin
     id 11 
     name lowerback
     direction -0.00902269 0.996426 -0.0839821   
     length 2.25052   
     axis 0 0 0   XYZ
    dof rx ry rz
    limits (-20.0 45.0)
           (-30.0 30.0)
           (-30.0 30.0)
  end
  begin
     id 12 
     name upperback
     direction 0.0370973 0.999169 -0.0168941   
     length 2.24876   
     axis 0 0 0   XYZ
    dof rx ry rz
    limits (-20.0 45.0)
           (-30.0 30.0)
           (-30.0 30.0)
  end
  begin
     id 13 
     name thorax
     direction 0.0402726 0.998931 0.0227027   
     length 2.26408   
     axis 0 0 0   XYZ
    dof rx ry rz
    limits (-20.0 45.0)
           (-30.0 30.0)
           (-30.0 30.0)
  end
  begin
     id 14 
     name lowerneck
     direction -0.0733697 0.98508 0.155675   
     length 1.58204   
     axis 0 0 0   XYZ
    dof rx ry rz
    limits (-20.0 45.0)
           (-30.0 30.0)
           (-30.0 30.0)
  end
  begin
     id 15 
     name upperneck
     direction 0.0426554 0.993501 -0.105526   
     length 1.61222   
     axis 0 0 0   XYZ
    dof rx ry rz
    limits (-20.0 45.0)
           (-30.0 30.0)
           (-30.0 30.0)
  end
  begin
     id 16
     name head
     direction 0.020792 0.998384 -0.0528868  
     length 1.61527  
     axis 0 0 0   XYZ
    dof rx ry rz
    limits (-20.0 45.0)
           (-30.0 30.0)
           (-30.0 30.0)
  end
  begin
     id 17 
     name lclavicle
     direction 0.967109 0.155462 -0.201325  
     length 3.59357  
     axis 0 0 0   XYZ
    dof ry rz
    limits (-20.0 10.0)
           (0.0 20.0)
  end
  begin
     id 18 
     name lhumerus
     direction 1 -4.48968e-011 2.38195e-027   
     length 5.38154   
     axis 180 -30 -90   XYZ
    dof rx ry rz
    limits (-60.0 90.0)
           (-90.0 90.0)
           (-90.0 90.0)
  end
  begin
     id 19
     name lradius
     direction 1 -4.48961e-011 4.85371e-027   
     length 3.33312   
     axis 180 -30 -90   XYZ
    dof rx
    limits (-10.0 170.0)
  end
  begin
     id 20
     name lwrist
     direction 1 -4.48961e-011 4.76515e-027   
     length 1.66656   
     axis -3.27502e-015 90 90   XYZ
    dof ry
    limits (-180.0 0.0)
 end
  begin
     id 21 
     name lhand
     direction 1 -4.48951e-011 9.53074e-027   
     length 0.710789   
     axis -6.08098e-015 90 90   XYZ
    dof rx rz
    limits (-90.0 90.0)
           (-45.0 45.0)
  end
  begin
     id 22 
     name lfingers
     direction 1 -4.48953e-011 1.90613e-026   
     length 0.573057   
     axis -1.21619e-014 90 90   XYZ
    dof rx
    limits (0.0 90.0)
  end
  begin
     id 23
     name lthumb
     direction 0.707107 -6.34973e-011 0.707107   
     length 0.822798   
     axis -90 45 -9.86923e-015   XYZ
    dof rx rz
    limits (-45.0 45.0)
           (-45.0 45.0)
  end
  begin
     id 24 
     name rclavicle
     direction -0.9585 0.265289 -0.104398   
     length 3.42039  
     axis 0 0 0   XYZ 
    dof ry rz
    limits (-10.0 20.0)
           (-20.0 0.0)
  end
  begin
     id 25 
     name rhumerus
     direction -1 -4.48977e-011 2.21478e-027  
     length 5.16954   
     axis 180 30 90   XYZ
    dof rx ry rz
    limits (-90.0 60.0)
           (-90.0 90.0)
           (-90.0 90.0)
  end
  begin
     id 26 
     name rradius
     direction -1 -4.48967e-011 5.63677e-027   
     length 3.38287   
     axis 180 30 90   XYZ
    dof rx
    limits (-10.0 170.0)
  end
  begin
     id 27 
     name rwrist
     direction -1 -4.48967e-011 4.76501e-027   
     length 1.69144   
     axis -3.27502e-015 -90 -90   XYZ
    dof ry
    limits (-180.0 0.0)
  end
  begin
     id 28
     name rhand
     direction -1 -4.48902e-011 9.53292e-027   
     length 0.817967   
     axis -6.08098e-015 -90 -90   XYZ
    dof rx rz
    limits (-90.0 90.0)
           (-45.0 45.0)
  end
  begin
     id 29
     name rfingers
     direction -1 -4.49012e-011 1.90561e-026   
     length 0.659466   
     axis -1.21619e-014 -90 -90   XYZ
    dof rx
    limits (0.0 90.0)
  end
  begin
     id 30
     name rthumb
     direction -0.707107 -6.34944e-011 0.707107   
     length 0.946865   
     axis -90 -45 9.86923e-015   XYZ
    dof rx rz
    limits (-45.0 45.0)
           (-45.0 45.0)
  end
:hierarchy
  begin
    root lhipjoint rhipjoint lowerback
    lhipjoint lfemur
    lfemur ltibia
    ltibia lfoot
    lfoot ltoes
    rhipjoint rfemur
    rfemur rtibia
    rtibia rfoot
    rfoot rtoes
    lowerback upperback
    upperback thorax
    thorax lowerneck lclavicle rclavicle
    lowerneck upperneck
    upperneck head
    lclavicle lhumerus
    lhumerus lradius
    lradius lwrist
    lwrist lhand lthumb
    lhand lfingers
    rclavicle rhumerus
    rhumerus rradius
    rradius rwrist
    rwrist rhand rthumb
    rhand rfingers
  end

#!OML:ASF F:\twosubjects\two\wednesday\Session 1\Justin1.ASF
:FULLY-SPECIFIED
:DEGREES
129
root 1.99432 17.4595 6.66313 -175.686 -5.32228 -185.834
lowerback 1.3133 -5.14833 -8.84237
upperback -0.0552845 -7.00343 2.42816
thorax 0.571996 -3.54466 7.45026
lowerneck -16.5183 -1.7939 -9.79693
upperneck 16.8237 -1.21731 6.91638
head 8.03271 -0.457637 3.80287
rclavicle 7.95139e-016 1.43125e-014
rhumerus -47.6166 -13.5146 -70.9256
rradius 23.3362
rwrist -7.25377
rhand -12.8969 16.4156
rfingers 7.12502
rthumb 13.1926 -13.1469
lclavicle 7.95139e-016 1.43125e-014
lhumerus 22.1028 10.1374 80.4225
lradius 36.5859
lwrist 1.9389
lhand -3.24253 38.9041
lfingers 7.12502
lthumb 22.4812 67.6155
rfemur -36.5015 -0.212063 12.5462
rtibia 23.8659
rfoot -5.60448 -6.31834
rtoes 2.59644
lfemur 14.2558 -3.42705 -28.1575
ltibia 18.4766
lfoot -8.98507 -6.38128
ltoes -26.3853
130
root 2.02351 17.4267 6.48627 -175.363 -5.63637 -185.888
lowerback 0.792631 -5.14306 -9.04131
upperback -0.028237 -6.95089 2.48721
thorax 0.913035 -3.53704 7.57004
lowerneck -16.4963 -1.90128 -9.65235
upperneck 16.5617 -1.36392 6.69749
head 7.95299 -0.541544 3.68106
rclavicle 3.6477e-014 -3.97569e-015
rhumerus -47.3214 -13.8998 -70.8838
rradius 23.2358
rwrist -6.95372
rhand -13.0264 16.7326
rfingers 7.12502
rthumb 13.0678 -12.838
lclavicle 3.6477e-014 -3.97569e-015
lhumerus 21.4248 9.87595 80.7152
lradius 36.991
lwrist 1.45173
lhand -4.03357 38.5737
lfingers 7.12502
lthumb 21.7217 67.375
rfemur -35.9142 -0.0191143 12.5736
rtibia 24.6226
rfoot -5.03828 -6.38992
rtoes 1.12122
lfemur 14.1732 -3.2684 -27.8527
ltibia 18.87
lfoot -8.47201 -6.98149
ltoes -27.0541
131
root 2.05515 17.3996 6.30663 -175.212 -5.91424 -185.783
lowerback 0.301177 -5.16065 -9.0953
upperback 0.140844 -6.92818 2.59307
thorax 1.38107 -3.55733 7.65259
lowerneck -16.522 -1.94073 -9.64007
upperneck 16.1098 -1.40359 6.58309
head 7.81033 -0.573215 3.6259
rclavicle -1.11319e-014 9.54166e-015
rhumerus -46.7066 -14.4062 -70.7886
rradius 22.9561
rwrist -6.55822
rhand -13.0998 17.0948
rfingers 7.12502
rthumb 12.997 -12.4804
lclavicle -1.11319e-014 9.54166e-015
lhumerus 20.8036 9.5565 80.8197
lradius 37.3615
lwrist 1.19273
lhand -4.67933 38.4108
lfingers 7.12502
lthumb 21.1015 67.2826
rfemur -34.9396 0.063188 12.9293
rtibia 25.1873
rfoot -5.10941 -6.43623
rtoes -0.985809
lfemur 14.2935 -3.13948 -27.3844
ltibia 19.2569
lfoot -7.85028 -7.5684
ltoes -26.5574
132
root 2.08258 17.3921 6.12404 -175.116 -6.13406 -185.663
lowerback 0.259816 -5.12602 -8.94652
upperback 0.0768852 -6.87989 2.6323
thorax 1.31478 -3.52663 7.61348
lowerneck -16.856 -1.95642 -9.6945
upperneck 16.2629 -1.38894 6.6034
head 7.91896 -0.56556 3.64761
rclavicle -4.27387e-014 -7.15625e-015
rhumerus -46.5039 -14.5607 -70.8593
rradius 22.9203
rwrist -6.36348
rhand -13.0565 16.8571
rfingers 7.12502
rthumb 13.0387 -12.7154
lclavicle -4.27387e-014 -7.15625e-015
lhumerus 19.7665 9.0019 80.7081
lradius 37.6828
lwrist 1.26341
lhand -4.45242 38.6467
lfingers 7.12502
lthumb 21.3195 67.494
rfemur -33.6388 -0.210165 13.5438
rtibia 25.4017
rfoot -4.43587 -6.0677
rtoes -3.45112
lfemur 14.5891 -3.27231 -27.002
ltibia 19.5416
lfoot -6.95357 -7.92029
ltoes -24.8461
133
root 2.09942 17.4131 5.94194 -174.867 -6.3233 -185.346
lowerback 0.493391 -5.02144 -8.3739
upperback -0.286335 -6.76692 2.69644
thorax 0.722798 -3.42563 7.41257
lowerneck -17.1779 -2.07925 -9.7311
upperneck 16.7048 -1.50222 6.52157
head 8.13342 -0.626889 3.62254
rclavicle -3.39922e-014 5.00937e-014
rhumerus -46.6356 -14.5889 -70.9996
rradius 22.962
rwrist -6.57905
rhand -12.8785 16.325
rfingers 7.12502
rthumb 13.2103 -13.2365
lclavicle -3.39922e-014 5.00937e-014
lhumerus 18.3477 8.45387 80.7212
lradius 38.0902
lwrist 1.26654
lhand -4.04023 38.2268
lfingers 7.12502
lthumb 21.7153 67.0288
rfemur -32.8883 -0.300125 14.1931
rtibia 25.2256
rfoot -1.25999 -5.99609
rtoes -0.147702
lfemur 14.5891 -3.48154 -26.4711
ltibia 19.9511
lfoot -5.9103 -8.13376
ltoes -23.4943
134
root 2.11679 17.4493 5.76233 -174.574 -6.42555 -184.945
lowerback 0.514287 -4.8587 -7.78861
upperback -0.560878 -6.55579 2.78754
thorax 0.329943 -3.29268 7.20902
lowerneck -17.1841 -2.28901 -9.85032
upperneck 16.7763 -1.75679 6.518
head 8.18281 -0.755338 3.61195
rclavicle -6.5102e-014 7.95139e-016
rhumerus -46.6333 -15.0034 -70.9659
rradius 22.8011
rwrist -6.78794
rhand -12.7174 16.3948
rfingers 7.12502
rthumb 13.3656 -13.1565
lclavicle -6.5102e-014 7.95139e-016
lhumerus 17.0664 8.06708 81.0338
lradius 38.4967
lwrist 0.90429
lhand -3.95046 38.5493
lfingers 7.12502
lthumb 21.8015 67.3413
rfemur -33.0929 0.72177 14.2557
rtibia 24.6718
rfoot 2.88789 -7.68145
rtoes 11.4894
lfemur 14.3859 -3.64767 -25.8721
ltibia 20.4828
lfoot -4.54875 -8.36152
ltoes -22.7228
135
root 2.13776 17.4507 5.58778 -174.541 -6.41272 -184.43
lowerback 0.521744 -4.69285 -7.30458
upperback -0.600042 -6.33836 2.99414
thorax 0.216973 -3.18139 7.16677
lowerneck -17.2067 -2.45162 -9.95135
upperneck 16.6674 -1.9363 6.43165
head 8.16728 -0.856277 3.575
rclavicle 7.35503e-015 -5.64548e-014
rhumerus -46.2689 -15.4172 -70.8059
rradius 22.4737
rwrist -6.75985
rhand -12.8253 16.7085
rfingers 7.12502
rthumb 13.2616 -12.8496
lclavicle 7.35503e-015 -5.64548e-014
lhumerus 16.1237 8.32587 81.817
lradius 38.7523
lwrist 0.161676
lhand -3.80961 40.0952
lfingers 7.12502
lthumb 21.9368 68.8715
rfemur -32.8732 1.34668 14.696
rtibia 23.8839
rfoot 5.57771 -9.24995
rtoes 19.2648
lfemur 14.3389 -3.72137 -25.2034
ltibia 21.1765
lfoot -2.96666 -8.5476
ltoes -22.8953
136
root 2.14988 17.4435 5.41721 -174.67 -6.20399 -183.429
lowerback 0.70538 -4.47637 -6.15354
upperback -0.660413 -6.0642 3.27289
thorax -0.0851866 -3.03857 6.8427
lowerneck -17.2678 -2.52274 -10.0843
upperneck 16.673 -1.99131 6.41734
head 8.18657 -0.892185 3.58542
rclavicle -2.48481e-014 -3.26007e-014
rhumerus -45.953 -15.6716 -70.7971
rradius 22.253
rwrist -6.75998
rhand -13.1099 16.7585
rfingers 7.12502
rthumb 12.9872 -12.8172
lclavicle -2.48481e-014 -3.26007e-014
lhumerus 15.1418 8.93327 82.6015
lradius 38.7884
lwrist -0.622797
lhand -3.34573 40.2536
lfingers 7.12502
lthumb 22.3821 68.977
rfemur -32.3703 0.865779 16.2421
rtibia 23.1617
rfoot 5.83347 -8.50644
rtoes 17.1776
lfemur 14.2978 -3.7078 -24.1548
ltibia 22.1102
lfoot -1.70708 -8.49406
ltoes -23.4134
137
root 2.15449 17.4514 5.24947 -174.871 -5.84286 -182.175
lowerback 1.11738 -4.21296 -4.64373
upperback -0.814084 -5.73271 3.58717
thorax -0.643318 -2.86484 6.37524
lowerneck -17.2898 -2.50949 -10.5256
upperneck 16.8577 -1.92062 6.75661
head 8.25402 -0.852016 3.78752
rclavicle -4.51241e-014 1.59028e-015
rhumerus -45.8003 -16.0619 -70.6448
rradius 22.0119
rwrist -6.29415
rhand -13.2881 16.6037
rfingers 7.12502
rthumb 12.8154 -12.9829
lclavicle -4.51241e-014 1.59028e-015
lhumerus 13.8101 9.17679 82.9548
lradius 38.7792
lwrist -0.964207
lhand -3.21939 39.8545
lfingers 7.12502
lthumb 22.5034 68.5633
rfemur -31.8565 -0.00430737 18.2703
rtibia 22.9999
rfoot 6.13988 -6.57445
rtoes 16.6749
lfemur 14.113 -3.63265 -22.9107
ltibia 23.3482
lfoot -0.386442 -8.21727
ltoes -22.9703
138
root 2.15503 17.4672 5.07994 -175 -5.29078 -181.469
lowerback 1.73111 -3.97557 -3.8709
upperback -1.03114 -5.43913 3.92802
thorax -1.29192 -2.70835 6.36369
lowerneck -17.5949 -2.46166 -10.831
upperneck 17.1935 -1.73589 6.72629
head 8.40725 -0.786026 3.85805
rclavicle 9.54166e-015 -4.77083e-014
rhumerus -45.3175 -16.5756 -70.0678
rradius 21.3713
rwrist -5.03681
rhand -13.322 16.2902
rfingers 7.12502
rthumb 12.7828 -13.2985
lclavicle 9.54166e-015 -4.77083e-014
lhumerus 11.8718 9.08775 83.0709
lradius 39.3931
lwrist -0.612683
lhand -4.12606 42.0076
lfingers 7.12502
lthumb 21.6329 70.8191
rfemur -31.4369 -0.525713 19.5622
rtibia 23.4454
rfoot 5.94377 -5.03969
rtoes 17.1394
lfemur 13.7209 -3.38464 -22.2407
ltibia 24.761
lfoot 1.66984 -7.98183
ltoes -22.3309
